# xmcd
#
# Track frame offsets: 
#        150
#        62225
#        115075
#        151452
#
# Disc length: 2900 seconds
#
# Revision: 2
# Processed by: cddbd v1.5.2PL0 Copyright (c) Steve Scherf et al.
# Submitted via: ExactAudioCopy v1.0b3
#
DISCID=2e0b5204
DTITLE=Various Artist - 情熱風流～韓国のシナウイ合奏
DYEAR=1992
DGENRE=Korean Folk
TTITLE0=シナウィ合奏
TTITLE1=奚琴散調
TTITLE2=ピリ・シナウィ
TTITLE3=風物(プンムル)ノリと太平簫(テピョンソ)シナウィ
EXTD=YEAR: 1984
EXTT0=
EXTT1=
EXTT2=
EXTT3=
PLAYORDER=
